<?xml version="1.0" ?><!-- Uploaded to: SVG Repo, www.svgrepo.com, Generator: SVG Repo Mixer Tools -->
<svg fill="#000000" width="800px" height="800px" viewBox="0 0 512 512" id="_x30_1" version="1.1" xml:space="preserve" xmlns="http://www.w3.org/2000/svg" xmlns:xlink="http://www.w3.org/1999/xlink"><path d="M455.973,357.336C443.559,350.167,436,336.835,436,322.5V230c0-82.238-55.152-151.593-130.485-173.101  C305.826,54.643,306,52.342,306,50c0-27.614-22.386-50-50-50s-50,22.386-50,50c0,2.342,0.174,4.643,0.485,6.899  C131.151,78.407,76,147.762,76,230v92.5c0,14.335-7.559,27.667-19.973,34.836c-11.76,6.791-19.742,19.394-20.019,33.884  C35.577,413.738,54.268,432,76.79,432H176c0,44.183,35.817,80,80,80s80-35.817,80-80h99.21c22.523,0,41.214-18.262,40.783-40.781  C475.715,376.73,467.733,364.126,455.973,357.336z"/></svg>