<?xml version="1.0" encoding="UTF-8"?>
<!DOCTYPE svg PUBLIC "-//W3C//DTD SVG 1.1//EN" "http://www.w3.org/Graphics/SVG/1.1/DTD/svg11.dtd">
<svg xmlns="http://www.w3.org/2000/svg" version="1.1" width="4026px" height="4026px" style="shape-rendering:geometricPrecision; text-rendering:geometricPrecision; image-rendering:optimizeQuality; fill-rule:evenodd; clip-rule:evenodd" xmlns:xlink="http://www.w3.org/1999/xlink">
<g><path style="opacity:0.998" fill="#fef7ef" d="M 1991.5,1220.5 C 2089.72,1216.42 2161.05,1257.92 2205.5,1345C 2360.08,1392.48 2480.91,1483.98 2568,1619.5C 2619.84,1704.14 2648.5,1796.14 2654,1895.5C 2654.05,1998.51 2654.72,2101.51 2656,2204.5C 2671.49,2376.35 2746.65,2515.18 2881.5,2621C 2930.09,2669.54 2942.26,2726.04 2918,2790.5C 2891.9,2842.9 2849.73,2873.4 2791.5,2882C 2601.5,2882.5 2411.5,2882.67 2221.5,2882.5C 2213.41,2945.87 2183.08,2995.37 2130.5,3031C 2084.72,3061.56 2034.38,3072.9 1979.5,3065C 1911.42,3052.56 1860.25,3016.39 1826,2956.5C 1813.23,2933.42 1805.73,2908.76 1803.5,2882.5C 1613.17,2882.67 1422.83,2882.5 1232.5,2882C 1174.64,2873.51 1132.47,2843.34 1106,2791.5C 1080.74,2725.4 1093.57,2667.9 1144.5,2619C 1257.72,2529.8 1329.22,2414.3 1359,2272.5C 1362.6,2252.62 1365.27,2232.62 1367,2212.5C 1368.29,2110.84 1368.96,2009.18 1369,1907.5C 1377.87,1740.28 1443.37,1600.12 1565.5,1487C 1638.66,1421.23 1722.66,1373.73 1817.5,1344.5C 1841.87,1294.3 1879.53,1257.8 1930.5,1235C 1950.29,1227.28 1970.62,1222.45 1991.5,1220.5 Z"/></g>
</svg>
