<?xml version="1.0" encoding="utf-8"?>
<!-- Generator: Adobe Illustrator 26.5.0, SVG Export Plug-In . SVG Version: 6.00 Build 0)  -->
<svg version="1.1" id="Layer_1" xmlns="http://www.w3.org/2000/svg" xmlns:xlink="http://www.w3.org/1999/xlink" x="0px" y="0px"
	 viewBox="0 0 299 368.6" style="enable-background:new 0 0 299 368.6;" xml:space="preserve">
<g>
	<path d="M100.2,178.2v-1.7v-69.7c0-5.3,0-10.5,1.2-15.8c2.5-11.5,8.7-20.5,17.9-27.7c6.2-4.9,13.1-8.5,20.9-9.9
		c17.5-3.2,33.1,0.7,46,13.3c9.3,9.2,14.4,20.4,14.9,33.6c0.1,1.5,0.1,3,0.1,4.6c0,23.9,0,47.8,0,71.6c0,0.5,0,1,0,1.7
		c0.9,0.1,1.8,0.2,2.6,0.2h37c6-0.1,12.1,0.1,18.1,0.2c5,0.2,8.5,2.7,10.4,7.3s1.2,8.8-2,12.6c-1,1.1-2,2.2-3,3.2
		c-28.4,28.4-56.8,56.8-85.2,85.2c-9.2,9.2-18.3,18.4-27.5,27.5c-0.6,0.6-1.2,1.2-1.9,1.8c-1-0.9-1.9-1.7-2.8-2.5
		c-38-37.7-75.9-75.6-113.8-113.5c-3.2-3.2-5.1-7-4.3-11.7c1.1-6,5.7-9.9,11.8-9.2h0.5c15.4-0.8,30.8-0.8,46.2-0.9
		c3.7,0,7.4-0.1,11.2-0.2C99,178.4,99.5,178.3,100.2,178.2z"/>
</g>
</svg>
