<?xml version="1.0" encoding="utf-8"?>
<!-- Generator: Adobe Illustrator 26.5.0, SVG Export Plug-In . SVG Version: 6.00 Build 0)  -->
<svg version="1.1" id="Layer_3_xA0_Image_00000013174193763978178970000017768625805423461005_"
	 xmlns="http://www.w3.org/2000/svg" xmlns:xlink="http://www.w3.org/1999/xlink" x="0px" y="0px" viewBox="0 0 2000 2000"
	 style="enable-background:new 0 0 2000 2000;" xml:space="preserve">
<path d="M971.2,1719h-24.3c-0.9-0.5-1.8-0.4-2.8-0.5c-3.3-0.1-6.6-0.2-9.9-0.4c-6.3-0.5-12.5-0.8-18.8-1.6c-4.3-0.6-8.7-0.9-13-1.6
	c-7.1-1-14.1-2.2-21.1-3.7c-9-1.9-17.9-4-26.6-6.9c-1-0.3-2-0.6-3.1-0.9c-11.8-3-23.4-6.4-34.8-10.5c-6.1-2.2-12.2-4.5-18.3-6.8
	c-27.3-10.2-53.6-22.6-78.7-37.3c-24.2-14.2-47.1-30.3-68.9-48c-54.4-44.1-99-96.7-133.8-157.4c-27.6-48.2-47.7-99.4-61.3-153.2
	c-2.8-11.3-5.3-22.6-7.5-34c-1-5.7-1.9-11.3-2.8-17c-0.6-3.8-1.1-7.6-1.6-11.4c-0.5-4.1-1-8.2-1.4-12.4c-0.4-3.5-0.6-7-0.9-10.5
	c-0.6-6.7-1-13.4-1.1-20.1c0-1.8,0-3.6-0.1-5.4c-0.1-2.2-0.3-4.5-0.5-6.7c0-0.6-0.3-1.1-0.8-1.6c0.1-1.2,0.1-1.8,0.1-3
	c0.5-0.5,0.6-1.1,0.7-1.8c0.2-3.2,0.4-6.4,0.5-9.6c0.1-3.3,0.2-6.6,0.3-9.9c0.3-4.5,0.6-8.9,1-13.4c0.5-5.3,0.9-10.6,1.5-15.9
	c0.8-6.9,1.8-13.7,2.9-20.6c1.4-8.7,3-17.4,4.8-26.1c3-14.4,6.5-28.7,10.3-42.9c4-14.9,8.1-29.8,12.1-44.7
	c4.9-18.4,9.5-36.9,12.7-55.8c0.8-4.7,1.5-9.5,2.2-14.2c0.7-5,1.2-10,1.6-15c0.5-6.3,0.9-12.5,1-18.8c0.2-11.2-0.4-22.4-1.7-33.5
	c-0.8-7.4-2-14.8-3.5-22.1c-3.1-15.2-7.5-30-13-44.5c-2.7-7.2-5.7-14.3-8.8-21.2c-0.4-0.9-0.8-1.8-1.1-2.6c-0.1-0.4,0-1,0.3-1.1
	c0.6-0.3,1.1-0.6,1.7-0.8c14.8-6.2,30.1-10.7,46.1-12.5c5.6-0.6,11.3-1,16.9-0.9c2.3,0,4.7,0.2,7,0.3c4.5,0.2,8.9,0.8,13.3,1.6
	c14.5,2.6,28.1,7.5,41,14.7c8.4,4.7,16.2,10.2,23.6,16.4c10.3,8.6,19.4,18.2,27.7,28.7c6.4,8,12.2,16.4,17.7,25.1
	c0.5,0.8,1,1.6,1.6,2.4c0.1,0.1,0.4,0.1,0.6,0.1c0,0,0.1-0.2,0.1-0.3c0-0.7,0.1-1.5,0-2.2c-0.2-6.2-0.5-12.4-0.7-18.5
	c-0.2-9.1-0.2-18.1-0.3-27.2c0-13.7,0.3-27.3,0.9-40.9c0.2-3.8,0.4-7.7,0.7-11.5c0.2-3.3,0.4-6.6,0.7-9.9c0.5-5.8,1-11.7,1.6-17.5
	c0.5-4.8,0.9-9.5,1.5-14.3c0.9-7,1.9-13.9,2.9-20.9c1.1-8.1,2.6-16.2,4.1-24.3c2.3-12.2,5.1-24.4,8.2-36.5
	c5.5-21.4,12.3-42.4,20.4-62.9c10.5-26.4,23.2-51.7,38.4-75.7c32.5-51.2,74.3-93.2,125.6-125.6c41.9-26.4,87-44.9,135.4-55.2
	c6.4-1.4,12.8-2.4,19.2-3.3c0.7-0.1,1.5-0.1,2.2-0.1c0.1,0,0.2,0.1,0.2,0.2c0,0.1,0.1,0.2,0.1,0.3c-0.3,0.4-0.7,0.8-1,1.2
	c-2.7,2.6-5.2,5.3-7.7,8.1c-12.7,15-22.1,31.8-28.5,50.4c-3.3,9.7-5.7,19.6-7.2,29.8c-0.8,5.6-1.4,11.2-1.6,16.9
	c-0.5,11.7,0,23.4,1.7,35.1c1.1,7.7,2.5,15.3,4.4,22.9c2.3,9.3,5.1,18.5,8.2,27.6c8.4,24.8,19.2,48.5,32,71.4
	c7.9,14,16.5,27.7,25.4,41c8,12,16.3,23.7,24.5,35.5c6.2,8.8,12.3,17.7,18.4,26.5c0.5,0.7,1,1.3,1.6,2c0.1,0.1,0.4,0,0.7,0
	c0.3-0.9,0.6-1.8,0.8-2.7c3.4-11.1,7.1-22.1,11.4-32.9c6.6-16.6,14.4-32.6,23.8-47.7c8.9-14.4,19.1-27.8,30.9-39.8
	c21.7-22.2,47.3-38.3,76.9-47.7c9.6-3,19.3-5.3,29.2-6.8c3.6-0.5,7.2-1,10.8-1.4c4.7-0.5,9.3-0.8,14-0.9c11-0.4,21.9,0.2,32.8,1.6
	c5.3,0.7,10.5,1.6,15.7,2.8c0.7,0.2,1.4,0.5,2.1,0.7c-0.1,0.8-0.7,1.2-1.1,1.6c-4,3.8-7.7,7.9-11.2,12.3
	c-13.2,16.7-22.6,35.3-28.3,55.8c-2.6,9.2-4.3,18.5-5.2,27.9c-0.6,6-1,12.1-1,18.2c0.1,9.7,0.8,19.4,2.2,29c1.2,8.1,2.9,16.2,5,24.1
	c6,22.3,14.1,43.8,24.4,64.5c6.3,12.7,13.4,25,20.9,37c5.8,9.3,11.7,18.6,17.5,27.9c6.7,10.8,13.1,21.7,19,33
	c9.1,17.7,16.5,36,21.9,55.2c2.6,9.2,4.8,18.6,6.5,28c1.1,5.8,2.1,11.5,2.8,17.4c0.5,4.1,1.1,8.2,1.6,12.4c0.3,2.7,0.6,5.3,0.8,8
	c0.3,3.8,0.6,7.7,0.9,11.5c0.6,7.5,1,15.1,1.1,22.7c0.2,11.1,0.3,22.2,0.1,33.3c0,0.6,0,1.3,0.1,1.9c0,0.1,0.1,0.2,0.2,0.2
	c0.2-0.1,0.4-0.1,0.5-0.3c0.2-0.5,0.4-1,0.6-1.5c3.2-10,7-19.9,11.5-29.5c5.7-12.2,12.5-23.8,20.6-34.5
	c7.9-10.4,16.9-19.8,27.3-27.7c8.5-6.5,17.7-11.8,27.6-15.9c0.7-0.3,1.4-0.6,2.1-0.8c0.5-0.2,1,0.1,1.2,0.7c0.1,0.4,0.2,0.8,0.4,1.2
	c0.6,2.4,1.3,4.7,1.9,7.1c4.6,17.6,8.5,35.4,12,53.3c2.9,14.6,5.4,29.3,7.7,44.1c1.3,8.3,2.3,16.7,3.5,25c1,7.1,1.8,14.2,2.5,21.3
	c0.2,2.4,0.5,4.9,0.8,7.3c0.3,3.2,0.7,6.4,1,9.6c0.3,3.5,0.6,7,0.9,10.5c0.4,5.3,0.8,10.6,1.2,15.9c0.3,4.4,0.5,8.7,0.8,13.1
	c0.2,2.9,0.3,5.8,0.4,8.6c0.1,5.3,0.2,10.7,0.2,16c0,1.2,0.2,2.3,0.5,3.4v38.4c-0.4,1.3-0.5,2.7-0.5,4.1c0,3.9-0.2,7.9-0.2,11.8
	c0,6.2-0.6,12.3-0.8,18.5c0,0.3-0.1,0.6-0.1,1c-0.3,4-0.6,8.1-1,12.1c-0.3,3.3-0.5,6.6-0.9,9.9c-0.7,6.5-1.4,12.9-2.3,19.4
	c-0.9,6.7-1.8,13.3-2.8,19.9c-1.6,9.7-3.4,19.3-5.4,28.9c-4.1,19.2-9.2,38.1-15.5,56.7c-7.8,23.1-17.5,45.3-29.3,66.6
	c-11.1,20-23.1,39.3-36.2,58c-21.1,30-44.6,57.9-71,83.4c-37.2,36-78.6,66-124.3,90.2c-40.1,21.3-82.1,37.4-125.9,49.3
	c-8.9,2.4-17.9,4.7-26.9,7c-14.6,3.9-29.4,7.2-44.3,9.8c-8.5,1.5-17,2.8-25.6,3.8c-2.3,0.3-4.6,0.6-7,0.8c-3.3,0.3-6.6,0.7-9.9,1
	c-3.7,0.3-7.4,0.5-11.2,0.8c-0.4,0-0.8,0.1-1.3,0.1c-3.5,0.3-7,0.7-10.5,0.9c-5.7,0.4-11.5,0.8-17.2,0.9c-0.6,0-1.3,0-1.9,0.1
	C972,1718.7,971.6,1718.9,971.2,1719z"/>
</svg>
