<?xml version="1.0" encoding="utf-8"?>
<!-- Generator: Adobe Illustrator 26.5.0, SVG Export Plug-In . SVG Version: 6.00 Build 0)  -->
<svg version="1.1" id="Layer_2_xA0_Image_00000048492902789785491320000008385814627763018637_"
	 xmlns="http://www.w3.org/2000/svg" xmlns:xlink="http://www.w3.org/1999/xlink" x="0px" y="0px" viewBox="0 0 368.6 366.1"
	 style="enable-background:new 0 0 368.6 366.1;" xml:space="preserve">
<g>
	<path d="M184.1,366.1c-0.1,0-0.2,0-0.2,0c-0.2-0.3-0.4-0.6-0.6-0.9c-11.7-13.6-23.3-27.2-35-40.8c-0.2-0.3-0.5-0.5-0.7-0.7
		c-16.5,6.9-33,13.8-49.4,20.7c0,0-0.1,0-0.1,0s-0.1,0-0.1,0c0,0-0.1,0-0.2-0.1c-4.1-18-8.3-36.1-12.5-54.2
		c-18-1.5-35.9-3.1-53.9-4.6c4.8-18.1,9.5-36.1,14.2-54c-0.5-0.3-0.8-0.6-1.2-0.8c-4.5-2.9-9-5.7-13.5-8.6
		C21,215.7,11,209.4,1.1,203c-0.4-0.2-0.8-0.4-1.3-0.6c0-0.1,0-0.2,0-0.2c0.3-0.2,0.7-0.4,0.9-0.7C12.8,188.4,24.9,175.2,37,162
		c0.3-0.3,0.5-0.6,0.8-0.9C28.9,145.5,20,129.9,11,114.2c17.6-6.4,35.1-12.7,52.7-19c-0.2-6.1-0.4-12.1-0.7-18.1
		c-0.2-5.9-0.3-11.9-0.6-17.9c-0.4-8.1-0.7-17-0.4-18c18.4,2.5,36.7,5,55.2,7.6c7.8-16.2,15.6-32.4,23.4-48.7
		c15.3,10.9,30.4,21.7,45.6,32.5c14.5-10.8,28.9-21.5,43.4-32.2c8.4,16.7,16.8,33.3,25.2,49.9c17.9-2.8,35.6-5.6,53.4-8.4
		c-0.3,18.7-0.6,37.3-0.9,55.9c17.1,5.8,34.1,11.6,51.2,17.4c-9,16.4-17.9,32.8-26.8,49.1c0.3,0.4,0.5,0.6,0.8,0.9
		c12,12.6,23.9,25.2,35.9,37.7c0.1,0.1,0.2,0.2,0.4,0.3c0,0.2,0,0.3,0,0.5c-0.1,0.1-0.3,0.1-0.4,0.2c-15.1,10-30.2,20.1-45.2,30.1
		c-0.3,0.2-0.5,0.4-0.7,0.6c4.9,17.3,9.8,34.5,14.7,51.8c-0.6,0.1-1,0.2-1.4,0.2c-4.9,0.5-9.7,1-14.6,1.5c-4.1,0.4-8.3,0.9-12.4,1.3
		c-5,0.5-9.9,1-14.9,1.6c-3.9,0.4-7.8,0.8-11.7,1.2c-0.5,0-0.8,0.3-0.9,0.8c-0.3,1.5-0.6,3-0.9,4.5c-3.2,15.4-6.5,30.9-9.7,46.3
		c-0.1,0.4-0.2,0.8-0.4,1.4c-17.4-6.9-34.6-13.8-51.9-20.6c-0.3,0.4-0.6,0.7-0.8,1c-6.6,8-13.2,16-19.9,24
		C193.2,355.1,188.6,360.6,184.1,366.1z"/>
</g>
</svg>
