<?xml version="1.0" encoding="utf-8"?>
<!-- Generator: Adobe Illustrator 26.5.0, SVG Export Plug-In . SVG Version: 6.00 Build 0)  -->
<svg version="1.1" id="PREFERENCES_xA0_Image_00000017486905602287107510000009391969480152176027_"
	 xmlns="http://www.w3.org/2000/svg" xmlns:xlink="http://www.w3.org/1999/xlink" x="0px" y="0px" viewBox="0 0 2000 2000"
	 style="enable-background:new 0 0 2000 2000;" xml:space="preserve">
<g>
	<path d="M592.4,1646.9c0-6.6,0.4-12.7,1-18.7c0.4-4.1,1.2-8.2,2.5-12.2c2.5-7.9,5.1-15.8,8.2-23.5c16.5-40.2,32.8-80.5,49.2-120.8
		c0.8-2.1,1.8-4.1,2.5-6.2c1.6-4.3,1.7-8.8,0.5-13.2c-1-3.4-2.9-6.4-5.4-9c-1.6-1.6-3.3-3.1-5-4.5c-4.1-3.6-8.3-7-12.4-10.6
		c-20.3-17.6-39.4-36.5-57.2-56.8c-3.8-4.3-7.5-8.8-11.2-13.1c-2.1-2.5-4.9-4.1-8-5.1c-1.5-0.5-3.1-0.8-4.7-1.2
		c-1.6-0.3-3.2-0.3-4.8,0c-2.5,0.6-4.9,1.3-7.3,2.3c-5.6,2.4-11.2,4.8-16.8,7.2c-40.2,17.3-80.5,34.6-120.7,51.9
		c-2.1,0.9-4.1,1.8-6.2,2.7c-1.8,0.7-3.6,1.4-5.5,1.8c-5.4,0.9-10.6,2.3-16.1,2.6c-2.9,0.2-5.7,0.6-8.6,0.8
		c-5.8,0.5-11.5,0.5-17.2-0.1c-1.9-0.2-3.8-0.5-5.7-0.6c-8.7-0.7-17-2.7-25.3-5.3c-16.1-5-30.6-12.9-44.1-22.7
		c-4.4-3.2-8.6-6.7-12.8-10.2c-7.7-6.4-14.2-13.8-19.9-22c-6.6-9.5-11.9-19.7-16.1-30.5c-1.6-4.2-3.2-8.4-4.7-12.6
		c-2.9-8.1-5.2-18.6-6-27.1c-0.3-2.9-0.5-5.7-0.7-8.6c-0.3-4.2-0.4-8.3,0-12.5c0.3-3.8,0.6-7.7,0.9-11.5c0.6-7,2.2-13.9,4.1-20.7
		c7.5-26.8,21.1-49.9,41.3-69.2c3.5-3.3,7.1-6.4,10.9-9.3c3.6-2.7,7.3-5.1,11.3-7.2c7.3-3.9,14.8-7.5,22.5-10.8
		c39.1-16.8,78.1-33.6,117.2-50.3c2.6-1.1,5.3-2.2,7.9-3.6c5.1-2.7,8.3-6.8,9.9-12.4c0.9-3.1,1.2-6.2,0.9-9.5
		c-0.3-3.2-0.6-6.4-0.9-9.6c-0.6-7-1.1-14-1.6-21.1c-0.3-3.8-0.4-7.7-0.6-11.5c-0.4-13.1-0.4-26.2-0.1-39.3c0.2-7.4,0.5-14.7,1.3-22
		c0.7-6.3,0.9-12.8,1.8-19.1c0.6-4.2-0.2-8.3-1.6-12.3c-1.8-5-5-8.9-9.9-11.2c-2.3-1.1-4.7-2.1-7-3.1
		c-37.2-15.4-74.5-30.8-111.7-46.2c-9.2-3.8-18.3-7.6-27.5-11.4c-2.1-0.8-4.1-1.8-6-3c-12.7-8.2-24.1-17.9-33.7-29.7
		c-11.5-14-19.8-29.8-25-47.2c-4.6-15.4-7.1-31.1-7.5-47.2c-0.2-11.9,1.5-23.6,4.7-35c2.2-7.7,4.9-15.2,8.4-22.4
		c1.4-2.9,2.8-5.8,4.1-8.7c5.9-12.9,14.2-24.3,24.1-34.4c13.3-13.7,28.9-24.1,46.4-31.8c12.1-5.3,24.7-8.7,37.7-10.9
		c10.8-1.1,21.6-2.4,32.5-1c5.4,0.7,10.9,0.8,16.1,2.2c1.2,0.3,2.5,0.5,3.7,0.9c7.6,2.6,15.2,4.9,22.6,8
		c40.1,16.7,80.4,33.2,120.5,49.8c3,1.2,5.9,2.4,8.9,3.5c5.9,2.2,11.3,0.9,16.5-2.1c2-1.1,3.7-2.5,5.2-4.2c2.4-2.6,4.7-5.2,7-7.9
		c7.1-8.3,14.3-16.4,21.7-24.4c16-17.1,32.9-33.1,51-48c1.5-1.2,3-2.4,4.4-3.7c2-1.7,3.6-3.6,5-5.8c3.9-6.1,4.6-12.5,2.2-19.3
		c-0.6-1.8-1.5-3.5-2.2-5.3c-18.5-44.6-36.9-89.2-55.4-133.8c-0.9-2.1-1.8-4.1-2.6-6.2c-1.2-3-2-6-2.6-9.2
		c-1.7-8.2-2.2-16.5-2.8-24.8c-0.2-3.2,0-6.4,0.1-9.6c0.2-3.8,0.5-7.7,1-11.5c0.9-7.6,2.7-15.1,5-22.4c3.4-10.7,8-20.9,13.7-30.6
		c6.7-11.3,14.6-21.8,23.6-31.4c9.5-10.1,20.7-18.1,33-24.4c6.3-3.2,12.6-6.2,19.3-8.4c3.3-1.1,6.6-2.4,10-3.5
		c9.1-3.2,18.5-5,28.1-5.9c10.2-1,20.5-0.6,30.7,0.5c6.7,0.7,13.3,2.1,19.7,3.9c27.8,7.8,51.6,22,71.2,43.3c3,3.3,5.8,6.8,8.5,10.4
		c3,3.8,5.5,7.9,7.6,12.2c3.4,6.9,6.8,13.8,9.7,20.9c16.5,39.9,33,79.8,49.6,119.6c1,2.4,1.9,4.8,3,7c2.5,5.1,6.7,8.5,12.1,10.3
		c1.2,0.4,2.5,0.6,3.8,0.7c2.2,0.1,4.5,0.2,6.7,0.1c3.8-0.2,7.7-0.5,11.5-0.9c4.8-0.6,9.5-0.9,14.3-1.1c21.1-0.9,42.2-0.8,63.3,0.1
		c3.8,0.2,7.7,0.6,11.5,0.8c6.1,0.4,12.1,0.9,18.2,1.3c1.3,0.1,2.6,0.1,3.8,0.1c7.3,0.3,14.8-4.7,17.7-11.1c1.3-2.9,2.5-5.9,3.8-8.8
		c18.5-44.6,37-89.2,55.4-133.8c2.2-5.4,4.9-10.4,8.3-15.1c4.3-6,8.9-11.7,14-17c16.6-17.2,36.3-29.1,59.2-35.9
		c15.4-4.6,31.1-7.1,47.2-7.4c11.9-0.2,23.6,1.6,35,4.9c7.7,2.2,15.2,4.9,22.4,8.4c3.2,1.5,6.4,3,9.5,4.5
		c9.6,4.6,18.3,10.4,26.4,17.3c17.1,14.6,29.8,32.4,38.7,53c5.5,12.7,9,26,11,39.6c0.2,1.3,0.3,2.5,0.4,3.8
		c0.9,10.2,0.9,20.5,0,30.7c-0.5,6.1-1.7,12-3.6,17.8c-2.6,8.2-5.6,16.3-8.9,24.3c-16.2,39-32.3,78-48.5,116.9
		c-1.1,2.7-2.2,5.3-3.2,8c-1.8,5-1.6,10.1,0.8,14.9c0.7,1.4,1.4,2.9,2.4,4.1c2.8,3.5,5.7,6.8,9.2,9.7c26.5,21.4,50.2,45.6,72.3,71.3
		c1.5,1.7,2.9,3.4,4.3,5.1c2.9,3.5,6.5,6.2,10.1,8.8c3.2,2.3,6.9,3.2,10.8,3.6c1.2,0.1,2.6-0.1,3.8-0.4c3.5-0.7,6.7-2.1,10-3.4
		c14.5-5.8,29.1-11.7,43.6-17.5c30.8-12.4,61.7-24.8,92.5-37.2c1.5-0.6,2.9-1.2,4.5-1.8c1.8-0.6,3.6-1.4,5.5-1.7
		c5.7-0.9,11.3-2.2,17.1-2.5c6.1-0.3,12.1-0.5,18.2-0.4c13.2,0.2,26,2.8,38.5,7.1c16.2,5.5,30.8,14,44.3,24.4
		c2.8,2.2,5.5,4.4,8.2,6.7c13.5,11.3,23.8,24.9,31.4,40.7c2.8,5.8,5.5,11.6,7.4,17.7c0.9,2.7,1.9,5.4,2.9,8.2
		c1.5,4.2,2.8,8.5,3.7,12.9c1.4,6.9,2.8,13.8,2.9,20.9c0,2.9,0.1,5.8,0.1,8.6c0.2,13.5-2,26.8-5.8,39.7c-7.9,26.3-21.8,49-41.8,67.7
		c-3.5,3.3-7.2,6.3-11.1,9.2c-4.3,3.3-9,6.1-13.9,8.5c-7.2,3.5-14.4,6.8-21.9,9.8c-39.8,15.9-79.5,31.9-119.2,47.9
		c-2.4,1-4.8,1.8-7.1,3c-5.1,2.6-8.4,6.8-10,12.3c-1.1,3.8-1.4,7.5-0.7,11.4c0.5,2.8,0.7,5.7,0.8,8.6c0.4,8.3,0.9,16.6,1.2,24.9
		c0.5,13.1,0.6,26.2-0.2,39.3c-0.3,5.1-0.5,10.2-0.8,15.3c-0.2,5.1-0.6,10.2-1.3,15.3c-0.5,3.5-0.8,7-0.8,10.5
		c0.2,7.2,3.5,12.9,9.7,16.6c2.4,1.5,5.2,2.5,7.9,3.5c21,8.6,42,17.2,63.1,25.7c24.3,9.9,48.6,19.8,72.8,29.7
		c1.8,0.7,3.6,1.4,5.3,2.2c1.7,0.8,3.5,1.6,5.1,2.6c29.2,18.7,49.2,44.2,59.2,77.6c2.7,8.9,4.6,17.9,5.8,27.2
		c1.1,7.9,1.7,15.9,1.6,23.9c-0.1,8.1-1.3,15.9-3.1,23.7c-2.3,10.3-5.8,20.3-10.3,29.8c-1.1,2.3-2.2,4.6-3.3,6.9
		c-8,17.5-19.6,32.2-34.2,44.5c-18.1,15.4-38.9,25.6-62,31.2c-16,3.9-32.2,4.8-48.6,3.4c-6-0.5-12-1.6-17.8-3.5
		c-7.9-2.6-15.8-5.2-23.5-8.4c-39.6-16.2-79.3-32.4-119-48.6c-3.2-1.3-6.5-2.7-9.9-3.5c-2.5-0.6-5-0.6-7.6,0c-5.2,1.3-9.4,4-12.8,8
		c-2.1,2.4-3.9,5-6,7.5c-22.7,27-47.3,52.1-74.6,74.5c-2.7,2.2-5.3,4.6-7.7,7.2c-2.9,3.1-4.8,6.7-5.8,10.9c-0.7,2.9-0.6,5.7,0.2,8.5
		c0.9,3.1,2.2,6,3.3,9c7,17.2,14.1,34.3,21.1,51.5c11.5,28.1,23,56.2,34.6,84.3c2.6,6.3,4.2,12.7,5.1,19.4c0.8,6,1.5,12,1.7,18.1
		c0.2,9.3-0.6,18.6-2.2,27.7c-1.1,6-2.6,11.8-4.6,17.6c-3.5,10.4-8,20.2-13.7,29.5c-6.5,10.7-14,20.6-22.6,29.8
		c-9.9,10.7-21.6,19-34.6,25.5c-6,3-12.1,5.8-18.5,7.9c-3,1-6,2.2-9,3.2c-6.1,2-12.3,3.5-18.6,4.7c-13,2.4-26.1,2.4-39.2,1
		c-12.1-1.3-23.9-4.3-35.3-8.7c-20.9-8.1-39.2-20-54.8-36.1c-4-4.1-7.7-8.6-11.2-13.2c-2.9-3.8-5.4-7.9-7.6-12.2
		c-3.7-7.4-7.2-15-10.3-22.7c-16.1-39.4-32.2-78.7-48.3-118c-1-2.4-2-4.7-3.1-7c-2.5-5.2-6.5-8.6-12-10.4c-2.8-0.9-5.6-1.4-8.5-1.2
		c-1.9,0.1-3.8,0.3-5.7,0.5c-2.2,0.2-4.4,0.7-6.7,0.8c-16.3,0.8-32.6,2.1-48.9,1.8c-4.2-0.1-8.3-0.2-12.5-0.4
		c-6.4-0.3-12.8-0.6-19.2-0.9c-5.4-0.2-10.9-0.5-16.3-1.2c-2.5-0.3-5.1-0.5-7.7-0.6c-4.3-0.2-8.2,1.1-11.9,3.2c-3.5,2-6,4.8-7.7,8.3
		c-1.1,2.3-2,4.7-3,7.1c-18.5,45.3-36.9,90.6-55.4,135.9c-1.9,5.8-5.1,11-8.7,15.9c-10.7,15-23.6,27.8-39.2,37.6
		c-9.8,6.2-20.2,11-31.2,14.5c-15,4.8-30.4,7.5-46.1,8.1c-16.2,0.6-31.8-1.9-47.1-7.3c-5.1-1.8-10.2-3.8-15.1-6.2
		c-2-1-4.1-1.9-6.1-2.8c-17.1-7.9-31.7-19.2-43.9-33.4c-13.4-15.5-22.9-33.1-29.1-52.5c-2.5-7.9-4.3-16.1-5.5-24.3
		C592.7,1659.8,592.5,1653.1,592.4,1646.9z M1309.7,1003c-0.3-26.5-0.6-30-4.1-53.3c-2.2-14.3-5.6-28.2-10-41.9
		c-14-44-36.5-83-68-116.7c-33.8-36.2-74.1-62.6-120.6-79.5c-25.1-9.1-50.8-15-77.5-17.2c-1.9-0.2-3.8-0.4-5.7-0.6
		c-2.9-0.2-5.7-0.5-8.6-0.6c-13.1-0.3-26.2-0.6-39.3,1.1c-1.3,0.2-2.5,0.3-3.8,0.3c-7,0.3-14,1.5-20.9,2.7
		c-14.5,2.5-28.8,6-42.8,10.5c-94.9,30.5-168.5,105-198.5,199.7c-4.7,15-8.3,30.2-10.8,45.7c-1.2,7.9-2.4,15.8-2.7,23.8
		c-0.1,3.8-0.4,7.7-0.7,11.5c-0.5,7.7-0.5,15.3,0,23c0.2,3.2,0.5,6.4,0.6,9.6c0.2,8.7,1.4,17.2,2.7,25.8c2.4,15.5,6,30.7,10.7,45.7
		c25.4,80.6,84.3,151.7,170.6,189.4c29.2,12.7,59.7,20.9,91.5,23.8c1.6,0.2,3.2,0.4,4.8,0.6c2.5,0.2,5.1,0.6,7.7,0.6
		c16.6,0.5,33.3,1,49.8-1.2c0.6-0.1,1.3-0.1,1.9-0.2c6.7-0.3,13.3-1.9,20-2.7c14.4-2.8,28.7-6.3,42.7-10.9
		c72.2-23.8,131.7-72.8,169.1-137.1c15.7-27,27.1-55.7,34.1-86.2c3.2-13.7,5.2-27.6,6.8-41.6c0.2-1.6,0.3-3.2,0.3-4.8
		C1309.3,1015,1309.6,1007.6,1309.7,1003z"/>
</g>
</svg>
