<?xml version="1.0" encoding="utf-8"?>
<!-- Generator: Adobe Illustrator 26.5.0, SVG Export Plug-In . SVG Version: 6.00 Build 0)  -->
<svg version="1.1" id="SATSYMBOL_xA0_Image_00000095310352696729462650000011719051903313220009_"
	 xmlns="http://www.w3.org/2000/svg" xmlns:xlink="http://www.w3.org/1999/xlink" x="0px" y="0px" viewBox="0 0 969.1 969.1"
	 style="enable-background:new 0 0 969.1 969.1;" xml:space="preserve">
<g>
	<path d="M484.9,700.8c-33.6,0-67.2,0-100.8,0c-24.9,0-49.8,0-74.6,0c-17.4,0-34.9,0-52.3,0c-10.6,0-21.1,0.1-31.7-0.1
		c-13.9-0.3-25.5-5.6-34.9-16c-10.2-11.2-14.7-24.3-13.3-39.2c1.7-18.2,11.2-31.5,27.1-40.1c7.1-3.9,14.8-5.5,22.8-5.5
		c16.4,0,32.8,0,49.2-0.1c14.5,0,29.1,0,43.7,0c18.1,0,36.3,0.1,54.5,0c8.2,0,16.5-0.2,24.7-0.2c10.6,0,21.3,0.2,31.9,0.2
		c6.6,0,13.3-0.2,19.9-0.2c12.4,0,24.8,0,37.2,0c9.6,0,19.2,0.1,28.8,0.1c11.5,0,23,0.1,34.5,0.1c7.8,0,15.7-0.1,23.5-0.1
		c13,0,25.9,0.1,38.9,0.1c15.3,0,30.5,0.1,45.8,0c8.3,0,16.6-0.2,25-0.2c9,0,17.9,0,26.9,0.1c10.3,0.1,20.6,0,30.9,0.3
		c7.9,0.2,15.5,2,22.6,5.6c13.1,6.6,24.9,23,26.5,38.2c1.6,15.4-2,29.1-12.5,40.6c-10.6,11.6-23.9,17-39.6,16.5c-4-0.1-8-0.2-12-0.2
		c-31.1,0-62.2,0-93.3,0C584.4,700.9,534.7,700.9,484.9,700.8C484.9,700.8,484.9,700.8,484.9,700.8z"/>
	<path d="M485,537.7c-74,0-148,0-222,0c-5.1,0-10.2,0.2-15.4,0.1c-6.9,0-13.8-0.2-20.6-0.2c-16.2-0.1-29-6.7-39.2-19.3
		c-21.1-26.1-11.2-70.3,28-80.3c3.4-0.9,7.1-1.2,10.7-1.3c14.6-0.1,29.1-0.1,43.7-0.1c18.1,0,36.3-0.1,54.5-0.1
		c17.3,0,34.5,0,51.8,0.1c19.3,0,38.5,0,57.8,0c14.1,0,28.3,0,42.5-0.1c12.2,0,24.3,0,36.5,0c14.2,0,28.5,0,42.7,0
		c18.3,0,36.6,0,54.9,0.1c17.7,0,35.3,0,53,0c14.5,0,29-0.1,43.4,0c11.6,0,23.2,0,34.8,0.2c5.5,0.1,11,1,16.2,2.8
		c5.5,1.9,10.6,4.5,15,8.4c9.3,8.1,15.8,18,18,30.4c5.4,31.3-15.7,52.8-36.9,58c-4.8,1.2-9.8,1.7-14.7,1.5c-3.1-0.1-6.2-0.2-9.3-0.2
		c-71.6,0-143.2,0-214.8,0C505.3,537.7,495.1,537.7,485,537.7z"/>
	<path d="M483.4,374.5c-38.9,0-77.8,0-116.6,0c-14.6,0-29.1,0.1-43.7,0.1c-19,0-37.9-0.1-56.9,0c-8.3,0-16.6,0.1-24.9,0.1
		c-5.4,0-10.9,0-16.3-0.2c-13.4-0.5-24.8-5.5-33.9-15.5c-6.2-6.8-10.8-14.4-12.7-23.5c-6.4-30.5,12.9-53.6,35.6-60
		c5.4-1.5,10.9-1.8,16.4-1.8c15.4,0,30.7,0,46.1,0c17.4,0,34.9-0.1,52.3-0.1c17,0,34.1,0,51.1,0.1c18.9,0,37.8,0,56.6,0
		c15,0,30.1,0,45.1-0.1c13,0,26.1,0,39.1,0c13.8,0,27.7,0,41.5,0c17.8,0,35.7,0,53.5,0.1c17.8,0,35.7,0,53.5,0
		c15.4,0,30.7-0.1,46.1,0c8.9,0,17.8,0,26.6,0.2c7.1,0.1,14,1.5,20.5,4.4c15,6.5,27.8,23,29.3,40.2c1,10.5-0.2,20.7-5.5,30
		c-8.4,14.6-20.8,23.6-37.6,26c-2.8,0.4-5.7,0.5-8.6,0.5c-6.6,0-13.3-0.2-19.9-0.2C641.2,374.5,562.3,374.5,483.4,374.5
		C483.4,374.5,483.4,374.5,483.4,374.5z"/>
	<path d="M422.8,166.1c-0.3-29.8,23.7-57,56.8-57c33.1-0.1,57.3,27.1,57.1,57c-0.2,31.5-25.5,57-57,57
		C448.3,223.1,422.8,197.6,422.8,166.1z"/>
	<path d="M422.8,803c0-31.5,25.5-57.1,56.9-56.9c33.1,0.1,57.2,27.2,57,57.2c-0.2,31.4-25.7,57-57.1,56.8
		C446.6,859.8,422.5,832.8,422.8,803z"/>
</g>
</svg>
