<?xml version="1.0" encoding="utf-8"?>
<!-- Generator: Adobe Illustrator 26.5.0, SVG Export Plug-In . SVG Version: 6.00 Build 0)  -->
<svg version="1.1" id="SHARE_xA0_Image_00000144317193455751382400000008597458231063499966_"
	 xmlns="http://www.w3.org/2000/svg" xmlns:xlink="http://www.w3.org/1999/xlink" x="0px" y="0px" viewBox="0 0 966 966"
	 style="enable-background:new 0 0 966 966;" xml:space="preserve">
<g>
	<path d="M266.6,494.3c0-17.5,0-35,0-52.5c0-21.4,14.2-39.9,34.9-45.5c27.1-7.4,55,11,58.7,38.9c0.4,2.6,0.5,5.3,0.5,7.9
		c0,30.6-0.1,61.3,0,91.9c0.2,32.6,11.9,60.6,34.9,83.6c17.8,17.8,39.4,29.1,64.3,32.6c44,6.3,80.3-8.3,108.4-42.6
		c14.7-18,23.2-38.8,26.4-61.9c0.8-5.6,1.1-11.3,1.1-17c0.1-29.3,0-58.5,0-87.8c0-13.4,4.7-25,14.5-34.1
		c13.3-12.4,29-16.3,46.4-10.9c17.4,5.4,28,17.5,32.1,35.2c0.7,2.9,1,6,1,9c0,30.9,0.3,61.7-0.2,92.6c-0.3,24.2-5,47.7-13.3,70.3
		c-15.6,42.3-41.2,77-77.7,103.6c-24.9,18.2-52.7,30-83,35.6c-9.9,1.8-19.9,2.8-30,3.2c-10.7,0.4-21.3,0-31.8-1.3
		c-28.3-3.3-55-11.7-79.6-26c-52-30.2-85.8-74.5-101.2-132.6c-3.6-13.8-5.7-27.9-6.1-42.2c-0.2-8.2-0.3-16.5-0.3-24.7
		C266.6,511.3,266.6,502.8,266.6,494.3C266.6,494.3,266.6,494.3,266.6,494.3z"/>
	<path d="M479.4,236.3c1,0.9,1.9,1.6,2.7,2.5c37.8,37.8,75.6,75.6,113.3,113.3c2.9,2.9,5,6,4.8,10.3c-0.3,6.6-5.3,11.6-11.9,11.6
		c-14.7,0-29.4,0-44.1,0.1c-4.5,0-9,0.1-13.4,0.1c-0.5,0-1.1,0.1-2,0.2c0,1,0,1.9,0,2.9c0,24.5,0.1,48.9,0,73.4
		c-0.1,16-6.5,28.9-19.1,38.7c-6.5,5.1-13.7,8.7-22,10.1c-32.5,5.4-53-17.1-58-36.2c-1.1-4.3-1.6-8.6-1.6-13c0-24.2,0-48.5,0-72.7
		c0-1,0-1.9,0-3.1c-0.8-0.1-1.5-0.2-2.2-0.2c-12.6,0-25.3,0-37.9,0c-5.6,0-11.2-0.1-16.8-0.2c-5-0.1-8.8-2.2-11-6.8
		c-2.2-4.7-1.7-9.2,1.7-13.2c0.8-0.9,1.6-1.8,2.5-2.6c36.1-36.1,72.1-72.2,108.2-108.3c1.7-1.7,3.4-3.4,5-5.1
		C478.1,237.5,478.7,237,479.4,236.3z"/>
</g>
</svg>
