<?xml version="1.0" encoding="utf-8"?>
<!-- Generator: Adobe Illustrator 26.5.0, SVG Export Plug-In . SVG Version: 6.00 Build 0)  -->
<svg version="1.1" id="SHUFFLE-3_xA0_Image_00000163038722527799572170000015713419615161922456_"
	 xmlns="http://www.w3.org/2000/svg" xmlns:xlink="http://www.w3.org/1999/xlink" x="0px" y="0px" viewBox="0 0 963.1 963.1"
	 style="enable-background:new 0 0 963.1 963.1;" xml:space="preserve">
<g>
	<path d="M422.6,481.4c-0.5-0.8-1.1-1.5-1.6-2.2c-21.4-28.5-42.7-56.9-64-85.4c-5.5-7.3-11.5-13.9-19.1-19c-9-6-18.7-10.5-29.4-12.2
		c-4.3-0.7-8.8-0.9-13.1-1c-12.5-0.1-25.1-0.1-37.7-0.1c-4.7,0-9.4,0.2-14.1,0c-19.9-0.9-34.2-10.7-43.6-28
		c-4.2-7.8-5.3-16.3-5.1-25.1c0.6-24.8,21.5-45.1,43.6-47.4c3.1-0.3,6.2-0.5,9.3-0.5c15.7,0,31.3-0.2,47,0c29.2,0.4,57,6.9,83,20.5
		c23.1,12.2,42.6,28.7,58.3,49.7c15.9,21.2,31.7,42.4,47.6,63.5c0.7,0.9,1.3,1.8,2.2,2.9c0.7-0.9,1.2-1.5,1.8-2.2
		c14.4-19.2,28.9-38.3,43.2-57.5c15.5-20.9,34.8-37.4,57.7-49.7c12-6.5,24.7-11.3,37.9-14.7c1.1-0.3,2.1-0.6,3.5-1c0-3,0-5.9,0-8.9
		c0-8.2,0.1-16.3,0.1-24.5c0-7.4,0.1-14.9,0.2-22.3c0.1-6.6,4-11.1,10.3-12.2c3.2-0.6,6,0.2,8.6,2.1c1.2,0.9,2.3,1.9,3.4,3
		c35.8,35.8,71.6,71.6,107.4,107.4c2.6,2.6,5.2,5.1,8,7.8c-0.6,0.7-1.2,1.4-1.9,2.1c-38.2,38.2-76.3,76.4-114.5,114.5
		c-4.9,4.9-10.7,5.6-16.3,1.9c-3.2-2.2-5-5.2-5-9.1c-0.1-6.6-0.1-13.3-0.1-19.9c0-10.4,0-20.8,0-31.2c0-0.7-0.2-1.4-0.3-2.5
		c-1.2,0.8-2.2,1.4-3.1,2.1c-6.1,4.8-11.3,10.6-16,16.8c-12.9,17.1-25.7,34.3-38.6,51.4c-7,9.3-14,18.7-21,28
		c-0.7,0.9-1.3,1.8-2,2.8c0.4,0.6,0.8,1.2,1.2,1.8c20.1,26.8,40.2,53.6,60.3,80.4c4.5,6,9.5,11.6,15.4,16.4c1.1,0.9,2.3,1.7,3.8,2.8
		c0.1-1.5,0.3-2.7,0.3-3.9c0-12.6,0-25.1-0.1-37.7c0-3.8,0.1-7.7,0.1-11.5c0-5.1,2.4-8.7,7-10.8c4.5-2.1,8.9-1.6,12.8,1.5
		c0.8,0.6,1.4,1.3,2.1,2c37.8,37.8,75.6,75.5,113.3,113.3c0.9,0.9,1.7,1.8,2.5,2.7c-38.8,38.8-77.4,77.4-116,116
		c-3,3-6.5,4.9-10.9,4.4c-5.8-0.7-10.2-5-10.7-10.8c-0.2-2.4-0.2-4.8-0.2-7.2c-0.1-15.3-0.2-30.7-0.2-46.1c0-1.3,0-2.5,0-3.9
		c-1.5-0.4-2.7-0.8-3.9-1.1c-37.1-9.8-67.7-29.7-91.5-59.8c-12-15.2-23.4-30.8-35-46.3c-4.4-5.9-8.8-11.8-13.4-17.9
		c-0.6,0.8-1.2,1.4-1.7,2.1c-16.2,21.6-32.2,43.2-48.5,64.7c-25.5,33.4-58.8,55.2-99.9,64.8c-16.4,3.8-32.9,5.4-49.7,5.2
		c-13.3-0.2-26.5,0-39.8,0c-10.6,0-20.5-2.4-29.2-8.6c-11.1-7.8-18.8-18-21.4-31.5c-6.1-31.5,15.1-53.9,36.4-59.4
		c4.7-1.2,9.4-1.7,14.2-1.7c16.3,0,32.6,0,48.9,0c22.7,0,41.5-8.9,56.4-25.8c5.5-6.2,10.3-13.1,15.3-19.7c18-24,36-48,54-72
		C421.4,483.1,421.9,482.3,422.6,481.4z"/>
</g>
</svg>
